<svg data-v-16bc8e0b="" version="1.0" xmlns="http://www.w3.org/2000/svg" width="100%" height="100%" viewBox="0 0 340.000000 250.000000" preserveAspectRatio="xMidYMid meet" color-interpolation-filters="sRGB" class="el-tooltip" style="margin: auto;"><rect data-v-16bc8e0b="" x="0" y="0" width="100%" height="100%" fill="#fff" fill-opacity="1"></rect> <rect data-v-16bc8e0b="" x="0" y="0" width="100%" height="100%" fill="url(#watermark)" fill-opacity="1" class="watermarklayer"></rect> <g data-v-16bc8e0b="" fill="#1A1A1A" transform="translate(55.519989013671875,102)"><g transform="translate(0,0)"><rect fill="#1A1A1A" fill-opacity="1" stroke="#1A1A1A" x="0" y="0" width="46" height="46"></rect> <svg filter="url(#colors8485309642)" x="11.366999249007598" y="4.599999999999998" width="23.266001501984803" height="36.800000000000004"><svg xmlns="http://www.w3.org/2000/svg" viewBox="0 0 58.93 93.21"><title>g3</title><g data-name="图层 2"><g data-name="Layer 1"><path d="M.12 28.46C0 29.34 0 30.22 0 31.14 0 48.4 11.88 58.7 29.58 58.7c10.31 0 17.81 4.93 17.81 12.43 0 9.07-9.19 12-18 12-9.3-.11-18-4-18.26-14.34H.45c-.34 15.12 11.2 24.42 28.9 24.42 15 0 29.35-7.62 29.35-22.29 0-6.83-3.14-14.34-14.23-17.93A21.42 21.42 0 0 0 58.6 35.41a39.89 39.89 0 0 1-26 9.63A40 40 0 0 1 .12 28.46z" fill="#1a1a1a"></path><path d="M57.27 22a39.88 39.88 0 0 1-24.7 8.5 39.94 39.94 0 0 1-29.3-12.75A26.65 26.65 0 0 0 .12 28.46 40 40 0 0 0 32.57 45a39.89 39.89 0 0 0 26-9.63 28.72 28.72 0 0 0 .32-4.27 24 24 0 0 0-1.62-9.1z" fill="#93278f"></path><path d="M58.59 6.27L50.75 0l-6 7.28c-3.97-2.69-10.47-3.81-15.17-3.81-10.37 0-21.08 4.79-26.31 14.28a39.94 39.94 0 0 0 29.3 12.75 39.88 39.88 0 0 0 24.7-8.5 28.4 28.4 0 0 0-5.18-8.07z" fill="#662d91"></path></g></g></svg></svg> <defs><filter id="colors8485309642"><feColorMatrix type="matrix" values="0 0 0 0 0.99609375  0 0 0 0 0.99609375  0 0 0 0 0.99609375  0 0 0 1 0"></feColorMatrix></filter></defs></g> <g transform="translate(53,8.290974617004395)"><g><g><path transform="translate(0.001838509430703933,29.40599389009467)" d="M14.74-29.11C16.62-29.11 18.40-28.77 20.08-28.10C20.26-27.98 20.36-28.25 20.20-28.35C18.41-29.05 16.59-29.40 14.74-29.40C12.81-29.40 10.95-29.04 9.16-28.31C5.58-26.85 2.71-24.03 1.22-20.56C-0.25-17.15-0.47-13.14 0.97-9.45C2.39-5.74 5.21-2.85 8.71-1.28C12.16 0.26 16.18 0.48 19.95-0.97L19.95-14.70L14.70-14.70L10.21-26.33C10.12-26.50 10.08-26.73 10.08-27.01C10.08-29.02 12.82-29.11 14.74-29.11ZM23.69 0L31.67 0L31.67-29.40L23.69-29.40ZM44.77-29.11C46.76-29.11 48.47-28.57 49.81-27.85C49.92-27.79 49.99-27.80 50.02-27.89C50.05-27.97 50.02-28.04 49.94-28.10C48.37-28.97 46.65-29.40 44.77-29.40C43.46-29.40 42.21-29.18 41.03-28.75C37.91-27.60 35.03-24.91 35.03-20.75C35.03-17.81 36.59-15.57 38.39-14.15L50.65-4.91C51.13-4.52 51.37-4.05 51.37-3.49C51.37-2.84 51.11-2.37 50.61-2.06C48.44-0.56 44.63 0.30 41.31-0.88C38.30-1.95 35.74-4.33 35.36-7.94C35.27-8.12 35.07-8.11 35.07-7.90C35.18-6.89 35.48-5.92 35.95-5.00C37.42-2.15 40.58 0 44.81 0C46.13 0 47.38-0.22 48.55-0.65C51.69-1.81 54.56-4.51 54.56-8.69C54.56-11.69 52.96-13.91 51.11-15.33L38.93-24.53C38.49-24.84 38.26-25.30 38.26-25.91C38.26-26.53 38.51-27.02 39.02-27.38C40.48-28.40 42.43-29.11 44.77-29.11ZM67.70-29.06L72.20-29.06C72.28-29.06 72.32-29.12 72.32-29.23C72.32-29.34 72.28-29.40 72.20-29.40L57.92-29.40L57.92 0L72.20 0C72.28 0 72.32-0.06 72.32-0.17C72.32-0.28 72.28-0.34 72.20-0.34L67.70-0.34C66.73-0.34 65.90-1.13 65.90-2.10L65.90-14.49L72.20-14.49C72.28-14.49 72.32-14.55 72.32-14.66C72.32-14.77 72.28-14.83 72.20-14.83L65.90-14.83L65.90-27.30C65.90-28.27 66.73-29.06 67.70-29.06ZM90.22-12.68L95.05-0.08C95.10 0.08 95.45 0.02 95.34-0.21L90.59-12.56C93.10-13.91 95.26-16.74 95.26-20.41C95.26-21.64 95.02-22.81 94.54-23.90C93.25-26.86 90.43-29.40 86.27-29.40L75.68-29.40L75.68 0L83.66 0L83.66-27.34C83.66-28.31 84.49-29.11 85.47-29.11L86.27-29.11C87.47-29.11 88.60-28.88 89.65-28.41C92.50-27.16 94.96-24.44 94.96-20.41C94.96-16.74 92.77-13.99 90.22-12.68ZM102.73-7.98C100.44-7.98 98.74-6.28 98.74-3.99C98.74-1.71 100.45 0 102.73 0C105.03 0 106.72-1.70 106.72-3.99C106.72-6.21 104.96-7.98 102.73-7.98ZM118.65-29.40L110.08-29.40L121.38 0L129.95 0ZM115.37-13.73L120.62 0L110.08 0ZM124.66-15.67L119.36-29.40L129.95-29.40ZM146.96 0L146.96-14.28L152.67-29.19C152.79-29.43 152.48-29.47 152.38-29.32L148.13-18.19C147.93-17.72 147.53-17.30 146.87-17.30C146.22-17.30 145.82-17.72 145.61-18.19L141.29-29.40L133.31-29.40L138.94-14.70L138.94 0ZM165.56-2.14C165.56-2.37 165.61-2.59 165.69-2.81L175.94-29.40L156.20-29.40C156.11-29.40 156.07-29.34 156.07-29.21C156.07-29.09 156.11-29.02 156.20-29.02L164.64-29.02C165.74-28.93 166.77-27.87 166.32-26.59L156.07 0L175.77 0C176.05 0 175.99-0.38 175.77-0.38L167.33-0.38C166.38-0.38 165.56-1.20 165.56-2.14Z"></path></g> <!----></g> <!----></g></g></svg>