<?xml version="1.0" encoding="UTF-8"?>
<!DOCTYPE svg PUBLIC "-//W3C//DTD SVG 1.1//EN" "http://www.w3.org/Graphics/SVG/1.1/DTD/svg11.dtd">
<!-- Creator: CorelDRAW X8 -->
<svg xmlns="http://www.w3.org/2000/svg" xml:space="preserve" width="48mm" height="48mm" version="1.1" style="shape-rendering:geometricPrecision; text-rendering:geometricPrecision; image-rendering:optimizeQuality; fill-rule:evenodd; clip-rule:evenodd"
viewBox="0 0 4800 4800"
 xmlns:xlink="http://www.w3.org/1999/xlink">
 <defs>
  <style type="text/css">
   <![CDATA[
    .fil0 {fill:#222222}
    .fil1 {fill:#E67474}
   ]]>
  </style>
 </defs>
 <g id="图层_x0020_1">
  <metadata id="CorelCorpID_0Corel-Layer"/>
  <g id="_2476156164864">
   <path class="fil0" d="M701 2064c-180,-942 437,-1852 1379,-2033 942,-180 1852,437 2033,1379 34,181 31,478 -143,558 -105,48 -301,44 -406,-78 -74,-87 -83,-173 -86,-211 -32,-566 -496,-1015 -1071,-1015 -593,0 -1073,480 -1073,1073 0,593 480,1073 1073,1073 206,0 398,-58 561,-158l0 0c367,-209 768,162 562,570l0 0 -913 1473c-52,75 -129,105 -210,105 -81,0 -154,-31 -208,-109l-1 0 -6 -10 0 -1 0 0 -1242 -1998c-13,-19 -25,-39 -37,-59l-2 -4 0 0c-99,-167 -171,-354 -210,-555z"/>
   <circle class="fil1" cx="2407" cy="1737" r="663"/>
  </g>
 </g>
</svg>
