<?xml version="1.0" encoding="utf-8"?>
<!-- Generator: Adobe Illustrator 16.0.0, SVG Export Plug-In . SVG Version: 6.00 Build 0)  -->
<!DOCTYPE svg PUBLIC "-//W3C//DTD SVG 1.0//EN" "http://www.w3.org/TR/2001/REC-SVG-20010904/DTD/svg10.dtd">
<svg version="1.0" id="图层_1" xmlns="http://www.w3.org/2000/svg" xmlns:xlink="http://www.w3.org/1999/xlink" x="0px" y="0px"
	 width="45.354px" height="45.354px" viewBox="0 0 45.354 45.354" enable-background="new 0 0 45.354 45.354" xml:space="preserve">
<path d="M0,0v45.354h45.354V0H0z M34.467,32.397c0,6.029-5.941,9.045-11.88,9.045c-7.245,0-11.88-3.689-11.7-9.855h4.635
	c-0.135,3.465,3.376,5.311,7.065,5.355c3.419,0,7.064-1.395,7.064-4.545c0-3.105-2.834-4.814-6.974-4.814
	c-7.2,0-12.015-4.141-12.015-11.07c0-7.424,5.984-11.159,12.015-11.159c1.845,0,4.41,0.449,5.986,1.529l2.43-2.97l3.375,2.61
	l-2.656,3.104c1.846,2.161,2.701,4.141,2.701,6.885c0,3.914-1.936,7.109-5.895,8.639C33.16,26.683,34.467,29.741,34.467,32.397z"/>
<g>
</g>
<g>
</g>
<g>
</g>
<g>
</g>
<g>
</g>
<g>
</g>
</svg>
